<?xml version="1.0" encoding="utf-8"?>
<!-- Generator: Adobe Illustrator 16.0.4, SVG Export Plug-In . SVG Version: 6.00 Build 0)  -->
<!DOCTYPE svg PUBLIC "-//W3C//DTD SVG 1.1//EN" "http://www.w3.org/Graphics/SVG/1.1/DTD/svg11.dtd">
<svg version="1.1" id="Layer_1" xmlns="http://www.w3.org/2000/svg" xmlns:xlink="http://www.w3.org/1999/xlink" x="0px" y="0px"
	 width="29.999px" height="29.999px" viewBox="0 0 29.999 29.999" enable-background="new 0 0 29.999 29.999" xml:space="preserve">
<path fill="#878e93" d="M15,0C6.716,0,0,6.715,0,14.999c0,8.285,6.716,15,15,15c8.283,0,14.999-6.715,14.999-15
	C29.999,6.715,23.283,0,15,0z M22.608,16.623c0.699,0.682,1.439,1.326,2.066,2.078c0.278,0.333,0.54,0.678,0.739,1.066
	c0.285,0.552,0.028,1.159-0.467,1.191l-3.073-0.001c-0.794,0.066-1.425-0.254-1.958-0.796c-0.425-0.432-0.819-0.895-1.229-1.342
	c-0.167-0.183-0.344-0.355-0.553-0.493c-0.419-0.272-0.783-0.188-1.023,0.249c-0.245,0.446-0.301,0.939-0.324,1.435
	c-0.034,0.725-0.252,0.914-0.979,0.947c-1.554,0.073-3.027-0.163-4.397-0.945c-1.208-0.691-2.144-1.667-2.959-2.771
	c-1.587-2.152-2.803-4.514-3.895-6.943c-0.246-0.547-0.066-0.84,0.538-0.852C6.098,9.428,7.101,9.43,8.104,9.446
	c0.408,0.007,0.678,0.24,0.835,0.625c0.542,1.334,1.207,2.602,2.039,3.779c0.222,0.313,0.448,0.626,0.771,0.847
	c0.356,0.245,0.627,0.163,0.795-0.234c0.107-0.252,0.154-0.522,0.177-0.792c0.08-0.927,0.089-1.854-0.049-2.778
	c-0.086-0.577-0.411-0.95-0.987-1.06c-0.293-0.056-0.25-0.165-0.108-0.332c0.248-0.291,0.479-0.469,0.943-0.469l3.472-0.001
	c0.547,0.108,0.669,0.353,0.744,0.904l0.003,3.859c-0.006,0.212,0.107,0.845,0.49,0.985c0.307,0.101,0.51-0.145,0.693-0.34
	c0.832-0.883,1.426-1.926,1.957-3.006c0.234-0.476,0.437-0.968,0.633-1.461c0.146-0.366,0.373-0.545,0.785-0.54l3.343,0.004
	c0.098,0,0.199,0.001,0.296,0.019c0.563,0.096,0.718,0.338,0.543,0.888c-0.274,0.864-0.808,1.583-1.329,2.305
	c-0.558,0.771-1.154,1.517-1.707,2.292C21.937,15.65,21.977,16.007,22.608,16.623z"/>
</svg>
