<?xml version="1.0" encoding="utf-8"?>
<!-- Generator: Adobe Illustrator 16.0.4, SVG Export Plug-In . SVG Version: 6.00 Build 0)  -->
<!DOCTYPE svg PUBLIC "-//W3C//DTD SVG 1.1//EN" "http://www.w3.org/Graphics/SVG/1.1/DTD/svg11.dtd">
<svg version="1.1" id="Layer_1" xmlns="http://www.w3.org/2000/svg" xmlns:xlink="http://www.w3.org/1999/xlink" x="0px" y="0px"
	 width="152.026px" height="41.982px" viewBox="0 0 152.026 41.982" enable-background="new 0 0 152.026 41.982"
	 xml:space="preserve">
<path fill="#878e93" d="M143.637,7.193c-2.223,0-3.353-1.021-4.351-1.92c-0.903-0.815-1.613-1.455-3.137-1.455
	c-1.521,0-2.233,0.64-3.135,1.455c-0.998,0.898-2.131,1.92-4.351,1.92c-2.222,0-3.354-1.021-4.352-1.92
	c-0.902-0.815-1.614-1.455-3.135-1.455c-1.522,0-2.234,0.64-3.136,1.455c-0.997,0.898-2.129,1.92-4.351,1.92
	c-2.222,0-3.353-1.021-4.351-1.92c-0.901-0.815-1.614-1.455-3.135-1.455s-2.233,0.64-3.135,1.455c-0.999,0.898-2.13,1.92-4.353,1.92
	c-2.221,0-3.352-1.021-4.351-1.92c-0.902-0.815-1.613-1.455-3.135-1.455c-0.498,0-0.9-0.396-0.9-0.886
	c0-0.492,0.402-0.886,0.9-0.886c2.223,0,3.353,1.017,4.352,1.919c0.9,0.811,1.614,1.454,3.134,1.454
	c1.521,0,2.234-0.643,3.136-1.454c0.998-0.902,2.13-1.919,4.351-1.919c2.221,0,3.354,1.017,4.351,1.919
	c0.902,0.811,1.614,1.454,3.135,1.454c1.522,0,2.233-0.643,3.135-1.454c0.999-0.902,2.129-1.919,4.352-1.919
	c2.222,0,3.352,1.017,4.352,1.919c0.902,0.811,1.613,1.454,3.135,1.454c1.522,0,2.234-0.643,3.134-1.454
	c1-0.902,2.131-1.919,4.352-1.919c2.222,0,3.354,1.017,4.352,1.919c0.902,0.811,1.613,1.454,3.135,1.454
	c1.522,0,2.234-0.643,3.136-1.454c0.999-0.902,2.131-1.919,4.353-1.919c0.498,0,0.901,0.395,0.901,0.886
	c0,0.49-0.403,0.886-0.901,0.886c-1.522,0-2.233,0.64-3.136,1.455C146.99,6.171,145.859,7.193,143.637,7.193z"/>
<path fill="#878e93" d="M53.5,7.193c-2.222,0-3.354-1.021-4.353-1.92c-0.9-0.815-1.613-1.455-3.135-1.455
	c-1.521,0-2.233,0.64-3.135,1.455c-0.998,0.898-2.13,1.92-4.351,1.92c-2.222,0-3.353-1.021-4.352-1.92
	c-0.901-0.815-1.614-1.455-3.136-1.455c-1.521,0-2.233,0.64-3.135,1.455c-0.998,0.898-2.129,1.92-4.351,1.92
	c-2.22,0-3.353-1.021-4.351-1.92c-0.902-0.815-1.613-1.455-3.136-1.455c-1.521,0-2.232,0.64-3.134,1.455
	c-0.999,0.898-2.13,1.92-4.352,1.92c-2.221,0-3.353-1.021-4.351-1.92C3.328,4.458,2.617,3.818,1.095,3.818
	c-0.499,0-0.901-0.396-0.901-0.886c0-0.492,0.403-0.886,0.901-0.886c2.221,0,3.353,1.017,4.351,1.919
	c0.901,0.811,1.614,1.454,3.135,1.454c1.521,0,2.233-0.643,3.135-1.454c0.999-0.902,2.13-1.919,4.35-1.919
	c2.223,0,3.354,1.017,4.352,1.919c0.901,0.811,1.613,1.454,3.135,1.454c1.521,0,2.234-0.643,3.135-1.454
	c0.999-0.902,2.13-1.919,4.352-1.919c2.223,0,3.354,1.017,4.353,1.919c0.902,0.811,1.613,1.454,3.135,1.454
	c1.522,0,2.233-0.643,3.135-1.454c1-0.902,2.13-1.919,4.352-1.919c2.222,0,3.354,1.017,4.352,1.919
	c0.901,0.811,1.614,1.454,3.135,1.454c1.522,0,2.234-0.643,3.136-1.454c0.999-0.902,2.13-1.919,4.353-1.919
	c0.497,0,0.9,0.395,0.9,0.886c0,0.49-0.404,0.886-0.9,0.886c-1.523,0-2.234,0.64-3.137,1.455C56.854,6.171,55.723,7.193,53.5,7.193z
	"/>
<path fill="#878e93" d="M6.372,19.587l-0.948,8.718H1.847L0,11.946h2.534l1.397,12.9l1.256-12.9h2.51L9,24.941l1.35-12.995h2.274
	l-1.847,16.359H7.318L6.372,19.587z"/>
<path fill="#878e93" d="M22.929,18.839h3.577v2.338h-3.577v4.792h4.5v2.337h-7.106V11.946h7.106v2.338h-4.5V18.839z"/>
<path fill="#878e93" d="M43.229,15.708v0.585c0,1.683-0.521,2.759-1.682,3.295c1.397,0.539,1.942,1.777,1.942,3.507v1.331
	c0,2.524-1.35,3.881-3.956,3.881h-4.098V11.946h3.932C42.068,11.946,43.229,13.185,43.229,15.708z M38.041,14.284v4.323h1.019
	c0.971,0,1.562-0.42,1.562-1.73v-0.911c0-1.168-0.402-1.682-1.326-1.682H38.041z M38.041,20.944v5.025h1.493
	c0.876,0,1.351-0.397,1.351-1.614v-1.424c0-1.521-0.498-1.987-1.683-1.987H38.041z"/>
<path fill="#878e93" d="M54.954,11.759c2.535,0,3.838,1.496,3.838,4.113v0.515h-2.463v-0.679c0-1.167-0.475-1.611-1.303-1.611
	c-0.829,0-1.303,0.444-1.303,1.611c0,3.367,5.093,3.997,5.093,8.672c0,2.617-1.326,4.113-3.885,4.113
	c-2.557,0-3.884-1.496-3.884-4.113v-1.006h2.463v1.169c0,1.168,0.521,1.588,1.35,1.588s1.351-0.42,1.351-1.588
	c0-3.366-5.093-3.998-5.093-8.671C51.117,13.255,52.419,11.759,54.954,11.759z"/>
<path fill="#878e93" d="M69.19,11.946v12.62c0,1.169,0.522,1.588,1.351,1.588c0.829,0,1.35-0.419,1.35-1.588v-12.62h2.464v12.456
	c0,2.617-1.326,4.114-3.885,4.114c-2.557,0-3.884-1.497-3.884-4.114V11.946H69.19z"/>
<path fill="#878e93" d="M87.975,28.306c-0.143-0.421-0.238-0.677-0.238-2.009v-2.571c0-1.521-0.521-2.082-1.705-2.082h-0.899v6.662
	h-2.606V11.946h3.932c2.7,0,3.86,1.238,3.86,3.761v1.287c0,1.683-0.545,2.781-1.706,3.32c1.303,0.536,1.729,1.774,1.729,3.48v2.524
	c0,0.795,0.024,1.38,0.284,1.988H87.975z M85.133,14.284v5.025h1.018c0.971,0,1.563-0.423,1.563-1.731v-1.612
	c0-1.168-0.403-1.682-1.327-1.682H85.133z"/>
<path fill="#878e93" d="M101.049,19.214h3.364v2.338h-3.364v6.753h-2.605V11.946h6.894v2.338h-4.288V19.214z"/>
<path fill="#878e93" d="M115.594,18.839h3.576v2.338h-3.576v4.792h4.5v2.337h-7.105V11.946h7.105v2.338h-4.5V18.839z"/>
<path fill="#878e93" d="M133.549,28.306c-0.143-0.421-0.238-0.677-0.238-2.009v-2.571c0-1.521-0.52-2.082-1.705-2.082h-0.899v6.662
	h-2.605V11.946h3.932c2.7,0,3.861,1.238,3.861,3.761v1.287c0,1.683-0.545,2.781-1.706,3.32c1.303,0.536,1.729,1.774,1.729,3.48
	v2.524c0,0.795,0.023,1.38,0.284,1.988H133.549z M130.707,14.284v5.025h1.018c0.971,0,1.563-0.423,1.563-1.731v-1.612
	c0-1.168-0.402-1.682-1.327-1.682H130.707z"/>
<path fill="#878e93" d="M147.524,11.759c2.535,0,3.838,1.496,3.838,4.113v0.515h-2.464v-0.679c0-1.167-0.474-1.611-1.302-1.611
	c-0.83,0-1.303,0.444-1.303,1.611c0,3.367,5.093,3.997,5.093,8.672c0,2.617-1.327,4.113-3.885,4.113s-3.885-1.496-3.885-4.113
	v-1.006h2.464v1.169c0,1.168,0.52,1.588,1.349,1.588s1.351-0.42,1.351-1.588c0-3.366-5.093-3.998-5.093-8.671
	C143.688,13.255,144.99,11.759,147.524,11.759z"/>
<path fill="#878e93" d="M151.386,30.123H0v-1.817h151.386V30.123z"/>
<path fill="#878e93" d="M74.34,0c1.255,0,2.217,0.22,2.885,0.661c0.667,0.441,1.002,1.125,1.002,2.054
	c0,0.581-0.135,1.051-0.405,1.412c-0.27,0.362-0.658,0.646-1.165,0.852c0.168,0.207,0.346,0.443,0.531,0.709
	c0.185,0.266,0.369,0.543,0.549,0.833c0.181,0.291,0.356,0.592,0.525,0.905c0.169,0.314,0.326,0.622,0.471,0.924h-2.105
	c-0.153-0.271-0.309-0.544-0.466-0.823c-0.158-0.277-0.319-0.547-0.485-0.81c-0.165-0.262-0.329-0.51-0.49-0.744
	c-0.162-0.235-0.324-0.447-0.485-0.638h-0.93v3.014h-1.883V0.214c0.411-0.079,0.835-0.134,1.273-0.167
	C73.602,0.016,73.994,0,74.34,0z M74.449,1.583c-0.137,0-0.26,0.004-0.369,0.012c-0.108,0.009-0.211,0.017-0.308,0.024v2.239h0.531
	c0.708,0,1.215-0.087,1.521-0.262c0.306-0.174,0.459-0.472,0.459-0.893c0-0.405-0.155-0.693-0.465-0.864
	C75.509,1.67,75.052,1.583,74.449,1.583z"/>
<path fill="#878e93" d="M84.323,8.516c-0.588,0-1.094-0.082-1.521-0.244s-0.779-0.389-1.056-0.679
	c-0.278-0.29-0.483-0.635-0.616-1.036c-0.132-0.4-0.199-0.844-0.199-1.328V0.095h1.883v4.979c0,0.333,0.038,0.617,0.115,0.851
	c0.076,0.235,0.181,0.425,0.313,0.572c0.133,0.147,0.294,0.253,0.483,0.315c0.188,0.063,0.396,0.096,0.621,0.096
	c0.459,0,0.831-0.139,1.117-0.417c0.286-0.277,0.429-0.75,0.429-1.417V0.095h1.883v5.133c0,0.484-0.068,0.929-0.205,1.334
	c-0.137,0.404-0.346,0.752-0.627,1.042c-0.282,0.289-0.64,0.513-1.075,0.673C85.433,8.437,84.918,8.516,84.323,8.516z"/>
<path fill="#878e93" d="M67.676,3.187c0,0.358-0.114,0.629-0.344,0.816s-0.489,0.279-0.779,0.279c-0.29,0-0.549-0.092-0.778-0.279
	c-0.23-0.187-0.344-0.458-0.344-0.816c0-0.357,0.114-0.628,0.344-0.815c0.229-0.187,0.488-0.279,0.778-0.279
	c0.29,0,0.549,0.092,0.779,0.279S67.676,2.83,67.676,3.187z"/>
<path fill="#878e93" d="M6.074,36.633c0,0.709-0.234,1.274-0.704,1.692c-0.469,0.417-1.107,0.627-1.912,0.627H1.224v2.922h-1.03
	v-7.499h3.199c0.852,0,1.512,0.197,1.98,0.591C5.841,35.36,6.074,35.917,6.074,36.633z M5.038,36.643
	c0-0.968-0.589-1.452-1.769-1.452H1.224v2.96h2.088C4.462,38.15,5.038,37.646,5.038,36.643z"/>
<path fill="#878e93" d="M14.975,41.875l-0.868-2.191h-3.463L9.77,41.875H8.701l3.103-7.499h1.17l3.054,7.499H14.975z M12.375,35.143
	l-0.048,0.149c-0.089,0.294-0.223,0.674-0.399,1.133l-0.972,2.466h2.844l-0.977-2.476c-0.101-0.245-0.201-0.521-0.302-0.831
	L12.375,35.143z"/>
<path fill="#878e93" d="M22.038,41.982c-0.734,0-1.339-0.142-1.813-0.428c-0.475-0.286-0.867-0.762-1.176-1.425l0.89-0.41
	c0.428,0.965,1.115,1.448,2.06,1.448c0.551,0,0.984-0.126,1.3-0.377c0.317-0.252,0.475-0.604,0.475-1.06
	c0-0.472-0.173-0.812-0.517-1.021c-0.346-0.21-0.881-0.313-1.608-0.313h-0.383v-0.788h0.383c0.651,0,1.132-0.106,1.443-0.318
	c0.311-0.212,0.467-0.534,0.467-0.971c0-0.38-0.13-0.678-0.391-0.895c-0.261-0.219-0.634-0.329-1.12-0.329
	c-0.453,0-0.834,0.104-1.144,0.311c-0.309,0.208-0.556,0.542-0.739,1.004l-0.96-0.325c0.252-0.614,0.615-1.069,1.09-1.367
	c0.475-0.297,1.071-0.447,1.791-0.447c0.762,0,1.37,0.177,1.823,0.529c0.454,0.352,0.68,0.83,0.68,1.43
	c0,0.449-0.129,0.823-0.388,1.119c-0.258,0.294-0.633,0.498-1.123,0.611c0.547,0.083,0.974,0.278,1.279,0.588
	c0.307,0.309,0.459,0.701,0.459,1.168c0,0.694-0.249,1.245-0.747,1.652C23.57,41.777,22.894,41.982,22.038,41.982z"/>
<path fill="#878e93" d="M34.909,36.633c0,0.709-0.234,1.274-0.704,1.692c-0.469,0.417-1.107,0.627-1.912,0.627h-2.234v2.922h-1.031
	v-7.499h3.2c0.852,0,1.512,0.197,1.979,0.591C34.675,35.36,34.909,35.917,34.909,36.633z M33.873,36.643
	c0-0.968-0.589-1.452-1.77-1.452h-2.044v2.96h2.088C33.298,38.15,33.873,37.646,33.873,36.643z"/>
<path fill="#878e93" d="M43.81,41.875l-0.869-2.191h-3.463l-0.875,2.191h-1.068l3.103-7.499h1.17l3.053,7.499H43.81z M41.209,35.143
	l-0.048,0.149c-0.09,0.294-0.223,0.674-0.399,1.133l-0.972,2.466h2.844l-0.977-2.476c-0.102-0.245-0.202-0.521-0.303-0.831
	L41.209,35.143z"/>
<path fill="#878e93" d="M54.324,39.678c0,0.664-0.232,1.194-0.696,1.597c-0.463,0.401-1.104,0.6-1.92,0.6h-3.156v-7.499h4.996v0.832
	h-3.965v2.34h2.061c0.849,0,1.507,0.187,1.977,0.561C54.09,38.48,54.324,39.003,54.324,39.678z M53.288,39.688
	c0-0.43-0.147-0.76-0.442-0.987c-0.295-0.229-0.737-0.344-1.328-0.344h-1.936v2.714h1.979c0.59,0,1.025-0.121,1.306-0.362
	C53.149,40.467,53.288,40.127,53.288,39.688z"/>
<path fill="#878e93" d="M65.599,38.091c0,0.785-0.151,1.472-0.457,2.061c-0.303,0.588-0.74,1.042-1.307,1.357
	c-0.569,0.316-1.24,0.474-2.013,0.474c-0.78,0-1.454-0.157-2.02-0.468c-0.566-0.312-0.999-0.765-1.298-1.354
	c-0.297-0.592-0.447-1.281-0.447-2.069c0-1.201,0.333-2.137,0.998-2.812c0.665-0.675,1.592-1.014,2.779-1.014
	c0.773,0,1.444,0.151,2.012,0.456c0.568,0.302,1.002,0.742,1.302,1.322C65.449,36.62,65.599,37.303,65.599,38.091z M64.547,38.091
	c0-0.934-0.237-1.667-0.709-2.198c-0.473-0.532-1.141-0.798-2.004-0.798c-0.87,0-1.542,0.263-2.018,0.788
	c-0.475,0.525-0.712,1.262-0.712,2.209c0,0.941,0.24,1.687,0.72,2.239c0.48,0.552,1.146,0.827,1.999,0.827
	c0.878,0,1.551-0.266,2.021-0.802C64.312,39.823,64.547,39.067,64.547,38.091z"/>
<path fill="#878e93" d="M72.774,35.207v6.667H71.75v-6.667h-2.611v-0.832h6.247v0.832H72.774z"/>
<path fill="#878e93" d="M79.308,34.375h1.03v3.296c0.27,0,0.485-0.037,0.647-0.109c0.162-0.072,0.33-0.208,0.507-0.405
	c0.178-0.199,0.458-0.583,0.842-1.158l1.105-1.624h1.079l-1.527,2.183c-0.471,0.671-0.793,1.067-0.965,1.192l2.746,4.124h-1.198
	l-2.304-3.634c-0.09,0.042-0.233,0.087-0.429,0.133c-0.196,0.044-0.364,0.07-0.505,0.07v3.431h-1.03V34.375z"/>
<path fill="#878e93" d="M93.895,41.875l-0.869-2.191h-3.464l-0.875,2.191h-1.067l3.102-7.499h1.17l3.054,7.499H93.895z
	 M91.294,35.143l-0.048,0.149c-0.09,0.294-0.223,0.674-0.399,1.133l-0.971,2.466h2.843l-0.977-2.476
	c-0.1-0.245-0.201-0.521-0.302-0.831L91.294,35.143z"/>
<path fill="#878e93" d="M107.834,35.094c-0.841,0-1.496,0.266-1.963,0.801c-0.468,0.535-0.701,1.267-0.701,2.195
	c0,0.919,0.244,1.659,0.73,2.218c0.487,0.558,1.147,0.837,1.978,0.837c1.064,0,1.865-0.519,2.4-1.56l0.842,0.415
	c-0.313,0.647-0.753,1.136-1.319,1.474c-0.566,0.339-1.223,0.507-1.972,0.507c-0.767,0-1.428-0.158-1.988-0.47
	c-0.56-0.315-0.985-0.763-1.279-1.35c-0.293-0.582-0.439-1.272-0.439-2.072c0-1.195,0.327-2.131,0.981-2.81
	c0.655-0.678,1.562-1.017,2.72-1.017c0.809,0,1.485,0.155,2.029,0.469c0.543,0.311,0.942,0.774,1.197,1.388l-0.976,0.32
	c-0.177-0.437-0.46-0.77-0.85-1.001C108.833,35.21,108.37,35.094,107.834,35.094z"/>
<path fill="#878e93" d="M120.355,41.875l-0.868-2.191h-3.463l-0.875,2.191h-1.067l3.101-7.499h1.171l3.054,7.499H120.355z
	 M117.756,35.143l-0.048,0.149c-0.091,0.294-0.224,0.674-0.399,1.133l-0.971,2.466h2.842l-0.976-2.476
	c-0.101-0.245-0.201-0.521-0.302-0.831L117.756,35.143z"/>
<path fill="#878e93" d="M125.098,41.875v-7.499h0.928v4.918c0,0.404-0.015,0.892-0.042,1.458l4.045-6.377h1.198v7.499h-0.917v-4.981
	c0-0.433,0.011-0.884,0.033-1.351l-4.003,6.333H125.098z M128.194,33.733c-1.28,0-1.94-0.569-1.98-1.704h0.885
	c0.043,0.705,0.409,1.059,1.095,1.059c0.687,0,1.052-0.354,1.096-1.059h0.885C130.135,33.164,129.474,33.733,128.194,33.733z"/>
<path fill="#878e93" d="M138.778,35.207v6.667h-1.025v-6.667h-2.61v-0.832h6.246v0.832H138.778z"/>
<path fill="#878e93" d="M150.334,41.875l-0.869-2.191h-3.464l-0.874,2.191h-1.068l3.102-7.499h1.17l3.054,7.499H150.334z
	 M147.734,35.143l-0.049,0.149c-0.089,0.294-0.223,0.674-0.398,1.133l-0.972,2.466h2.844l-0.977-2.476
	c-0.101-0.245-0.202-0.521-0.302-0.831L147.734,35.143z"/>
</svg>
