<?xml version="1.0" encoding="iso-8859-1"?>
<!-- Generator: Adobe Illustrator 19.0.0, SVG Export Plug-In . SVG Version: 6.00 Build 0)  -->
<svg version="1.1" id="Layer_1" xmlns="http://www.w3.org/2000/svg" xmlns:xlink="http://www.w3.org/1999/xlink" x="0px" y="0px"
	 viewBox="0 0 396.283 396.283" style="enable-background:new 0 0 396.283 396.283;" xml:space="preserve">
<path style="fill:#FFFFFF;" d="M390.077,342.174c0,26.57-21.01,47.58-46.352,47.58H52.558c-25.988,0-46.352-21.01-46.352-47.58
	h24.76V104.792h136.598V75.119l66.133-68.59h155.798v288.065h-24.76v47.58H390.077z"/>
<polygon style="fill:#E1E6E9;" points="340.622,294.594 340.622,317.479 55.661,317.479 55.661,129.552 167.499,129.552 
	167.499,294.594 "/>
<g>
	<rect x="172.477" y="360.081" style="fill:#193651;" width="50.683" height="12.347"/>
	<rect x="249.729" y="360.081" style="fill:#193651;" width="12.347" height="12.347"/>
	<rect x="133.495" y="360.081" style="fill:#193651;" width="12.347" height="12.347"/>
</g>
<polygon style="fill:#2EA2DB;" points="191.03,269.834 191.03,85.657 242.941,31.224 365.964,31.224 365.964,269.834 "/>
<polygon style="fill:#E1E6E9;" points="242.941,85.01 242.941,31.224 191.03,85.01 "/>
<g>
	<rect x="218.246" y="124.574" style="fill:#193651;" width="120.566" height="12.347"/>
	<rect x="218.246" y="175.903" style="fill:#193651;" width="120.566" height="12.347"/>
	<rect x="218.246" y="227.168" style="fill:#193651;" width="120.566" height="12.347"/>
	<path style="fill:#193651;" d="M370.941,335.968v-35.232h24.695V0.323H230.594l-69.236,72.339v25.923H24.76v237.382H0v6.206
		c0,29.673,23.467,53.786,52.558,53.786h291.168c29.026,0,52.558-24.113,52.558-53.786v-6.206H370.941z M173.705,77.576
		l62.448-64.905h147.135v275.717H173.705V77.576z M37.107,110.998h124.897V300.8h196.59v35.232H37.107V110.998z M343.079,383.612
		H52.558c-19.782,0-36.461-15.451-39.564-35.232h370.295C380.186,368.162,363.507,383.612,343.079,383.612z"/>
	<rect x="267.055" y="61.543" style="fill:#193651;" width="12.347" height="12.347"/>
	<rect x="296.727" y="61.543" style="fill:#193651;" width="12.347" height="12.347"/>
	<rect x="326.4" y="61.543" style="fill:#193651;" width="12.347" height="12.347"/>
</g>
<g>
</g>
<g>
</g>
<g>
</g>
<g>
</g>
<g>
</g>
<g>
</g>
<g>
</g>
<g>
</g>
<g>
</g>
<g>
</g>
<g>
</g>
<g>
</g>
<g>
</g>
<g>
</g>
<g>
</g>
</svg>
