<?xml version="1.0" encoding="utf-8"?>
<!-- Generator: Adobe Illustrator 16.0.4, SVG Export Plug-In . SVG Version: 6.00 Build 0)  -->
<!DOCTYPE svg PUBLIC "-//W3C//DTD SVG 1.1//EN" "http://www.w3.org/Graphics/SVG/1.1/DTD/svg11.dtd">
<svg version="1.1" id="Layer_1" xmlns="http://www.w3.org/2000/svg" xmlns:xlink="http://www.w3.org/1999/xlink" x="0px" y="0px"
	 width="29.992px" height="29.993px" viewBox="0 0 29.992 29.993" enable-background="new 0 0 29.992 29.993" xml:space="preserve">
<path fill="#878e93" d="M14.996,0C6.727,0,0,6.728,0,14.997s6.727,14.996,14.996,14.996c8.269,0,14.996-6.728,14.996-14.996
	S23.265,0,14.996,0z M18.725,15.524h-2.439c0,3.899,0,8.697,0,8.697H12.67c0,0,0-4.753,0-8.697h-1.719v-3.073h1.719v-1.989
	c0-1.423,0.676-3.648,3.648-3.648l2.678,0.011v2.983c0,0-1.628,0-1.944,0c-0.317,0-0.766,0.159-0.766,0.837v1.807h2.754
	L18.725,15.524z"/>
</svg>
