<?xml version="1.0" encoding="utf-8"?>
<!-- Generator: Adobe Illustrator 16.0.4, SVG Export Plug-In . SVG Version: 6.00 Build 0)  -->
<!DOCTYPE svg PUBLIC "-//W3C//DTD SVG 1.1//EN" "http://www.w3.org/Graphics/SVG/1.1/DTD/svg11.dtd">
<svg version="1.1" id="Layer_1" xmlns="http://www.w3.org/2000/svg" xmlns:xlink="http://www.w3.org/1999/xlink" x="0px" y="0px"
	 width="29.992px" height="29.993px" viewBox="0 0 29.992 29.993" enable-background="new 0 0 29.992 29.993" xml:space="preserve">
<path fill="#6c7076" d="M14.995,17.999c1.655,0,3.003-1.347,3.003-3.002c0-0.654-0.214-1.257-0.568-1.75
	c-0.546-0.757-1.433-1.253-2.435-1.253s-1.888,0.496-2.435,1.252c-0.355,0.493-0.567,1.096-0.568,1.75
	C11.993,16.651,13.34,17.999,14.995,17.999z"/>
<path fill="#6c7076" d="M21.551,11.324V8.808V8.433l-0.376,0.001l-2.516,0.008l0.01,2.891L21.551,11.324z"/>
<path fill="#6c7076" d="M14.996,0C6.727,0,0,6.728,0,14.997s6.727,14.996,14.996,14.996c8.269,0,14.996-6.728,14.996-14.996
	S23.265,0,14.996,0z M23.524,13.247v6.982c0,1.82-1.479,3.297-3.296,3.297H9.764c-1.818,0-3.296-1.477-3.296-3.297v-6.982V9.765
	c0-1.818,1.479-3.296,3.296-3.296h10.464c1.818,0,3.297,1.479,3.297,3.296V13.247z"/>
<path fill="#6c7076" d="M19.66,14.997c0,2.571-2.092,4.665-4.665,4.665c-2.572,0-4.664-2.094-4.664-4.665
	c0-0.619,0.123-1.21,0.343-1.75H8.128v6.982c0,0.903,0.733,1.634,1.635,1.634h10.464c0.902,0,1.634-0.731,1.634-1.634v-6.982h-2.546
	C19.535,13.786,19.66,14.378,19.66,14.997z"/>
</svg>
